<svg width="156" height="64" viewBox="0 0 156 64" fill="none" xmlns="http://www.w3.org/2000/svg">
<path fill-rule="evenodd" clip-rule="evenodd" d="M70.5094 33.9342H88.2615L79.1048 10.4772L70.5094 33.9342ZM74.1236 10.6382C74.6044 9.27086 75.4904 6.46016 75.4904 5.89813C75.4904 2.68662 72.5165 2.60398 69.304 2.12343L69.9601 0.355103H84.4061C84.4061 0.355103 97.1839 35.7518 101.508 47.5261C102.953 51.4607 106.719 54.4194 109.325 54.4194H101.556C95.5481 54.4194 93.7413 49.1172 93.1034 47.349C92.2338 44.9389 89.6283 37.7104 89.6283 37.7104H69.1438L63.1186 54.4194H58.139L74.1236 10.6382Z" fill="white"/>
<path fill-rule="evenodd" clip-rule="evenodd" d="M117.231 47.3498C117.231 50.644 120.526 50.644 124.945 50.644C133.78 50.644 137.557 46.7081 137.557 38.5126C137.557 30.5609 131.612 27.7488 124.542 27.7488H117.231V47.3498ZM117.231 23.9728H122.615C129.523 23.9728 134.826 21.7239 134.826 13.7721C134.826 6.5407 130.727 4.13196 123.418 4.13196C118.597 4.13196 117.231 4.37311 117.231 8.31038V23.9728ZM108.395 11.2809C108.395 3.32918 108.235 3.32918 100.765 2.12424L100.105 0.354553H124.623C133.861 0.354553 143.66 2.52505 143.66 13.37C143.66 21.2431 137.959 24.295 134.022 25.5812V25.7411C139.725 26.8661 146.392 29.8367 146.392 40.0387C146.392 54.4202 130.086 54.4202 123.498 54.4202H117.231C108.346 54.4202 108.395 48.8822 108.395 47.3605V11.2809Z" fill="white"/>
<path fill-rule="evenodd" clip-rule="evenodd" d="M22.8863 0.355103L22.2331 2.12343C29.6236 3.32702 29.8647 3.32702 29.8647 11.2815V47.3491C29.8647 48.8751 29.8661 54.3753 38.3836 54.4181H38.3855H38.4807H38.7017H44.7294H45.5293L46.2606 52.41H45.4791C39.8995 52.4022 38.7017 51.1851 38.7017 44.939V28.0703H55.1551L56.5391 24.294H38.7017V8.30668C38.7017 4.45204 39.7459 4.13116 43.7629 4.13116H50.0288C55.2503 4.13116 58.7036 5.81705 58.7036 12.2441H60.9522L65.2884 0.355103H22.8863Z" fill="white"/>
<path fill-rule="evenodd" clip-rule="evenodd" d="M0.639052 1.25024L0 3.0863C7.79326 4.13023 8.03421 4.21151 8.03421 10.9581V36.8705V42.5359V54.4183H8.25329C16.8706 54.4183 16.8706 48.8819 16.8706 47.3493V42.5359V36.8705V2.1223L17.65 0L0.639052 1.25024Z" fill="white"/>
<path fill-rule="evenodd" clip-rule="evenodd" d="M151.077 9.62949C150.444 9.62949 149.847 9.50292 149.285 9.26313C148.735 9.02083 148.246 8.69337 147.831 8.27398C147.412 7.85981 147.085 7.37249 146.841 6.8186C146.602 6.26199 146.479 5.66165 146.479 5.02511C146.479 4.38858 146.602 3.7921 146.841 3.23414C147.085 2.67773 147.412 2.19563 147.831 1.77625C148.246 1.35821 148.735 1.03191 149.285 0.789606C149.847 0.5473 150.444 0.426147 151.077 0.426147C151.715 0.426147 152.313 0.5473 152.867 0.789606C153.428 1.03191 153.913 1.35821 154.329 1.77625C154.747 2.19563 155.073 2.67773 155.312 3.23414C155.559 3.7921 155.681 4.38858 155.681 5.02511C155.681 5.66165 155.559 6.26199 155.312 6.8186C155.073 7.37249 154.747 7.85981 154.329 8.27398C153.913 8.69337 153.428 9.02083 152.867 9.26313C152.313 9.50292 151.715 9.62949 151.077 9.62949ZM151.077 8.73459C151.564 8.73459 152.015 8.64266 152.439 8.46306C152.857 8.27804 153.224 8.01832 153.539 7.68796C153.853 7.36049 154.102 6.9651 154.282 6.51107C154.466 6.05568 154.558 5.56043 154.558 5.02511C154.558 4.49115 154.466 3.99706 154.282 3.54051C154.102 3.08628 153.853 2.69089 153.539 2.36362C153.224 2.03326 152.857 1.77625 152.439 1.58987C152.015 1.41008 151.564 1.31563 151.077 1.31563C150.594 1.31563 150.142 1.41008 149.722 1.58987C149.3 1.77625 148.935 2.03326 148.617 2.36362C148.306 2.69089 148.06 3.08628 147.876 3.54051C147.695 3.99706 147.598 4.49115 147.598 5.02511C147.598 5.56043 147.695 6.05568 147.876 6.51107C148.06 6.9651 148.306 7.36049 148.617 7.68796C148.935 8.01832 149.3 8.27804 149.722 8.46306C150.142 8.64266 150.594 8.73459 151.077 8.73459Z" fill="white"/>
<path fill-rule="evenodd" clip-rule="evenodd" d="M153.201 7.63263C152.386 6.27731 151.854 5.3557 151.611 5.21867V5.21074C152.111 5.00153 152.596 4.52621 152.596 3.81923C152.596 3.0058 152.08 2.31992 150.698 2.31992H149.261V7.63263H150.237V5.53297H150.69C150.891 5.598 151.264 6.26124 152.088 7.63263H153.201ZM151.611 3.93109C151.611 4.41318 151.23 4.79116 150.73 4.79116H150.237V3.14282H150.722C151.329 3.14282 151.611 3.49699 151.611 3.93109Z" fill="white"/>
<path fill-rule="evenodd" clip-rule="evenodd" d="M94.4924 62.2765C94.4448 62.137 94.4052 62.0139 94.3879 61.9223H94.3835C94.3661 62.0183 94.3264 62.141 94.278 62.2682L94.1044 62.7313H94.6507L94.4924 62.2765ZM95.1272 63.9506L94.852 63.2651H93.9155L93.6538 63.9506H92.9972L94.1298 61.0561H94.6546L95.8489 63.9506H95.1272Z" fill="white"/>
<path fill-rule="evenodd" clip-rule="evenodd" d="M97.8419 63.9951C97.4136 63.9951 97.107 63.8557 96.8881 63.7117L97.1422 63.2341C97.3342 63.3659 97.5531 63.4658 97.8062 63.4658C98.0029 63.4658 98.222 63.3963 98.222 63.1991C98.222 62.854 97.5181 62.7971 97.1724 62.3947C97.0627 62.2676 96.9932 62.106 96.9932 61.8828C96.9932 61.4412 97.3481 61.039 98.0077 61.039C98.3139 61.039 98.5806 61.1174 98.76 61.2186L98.7468 61.7778C98.4792 61.6431 98.2835 61.5645 98.0474 61.5645C97.8463 61.5645 97.7019 61.6558 97.7019 61.7961C97.7019 62.2554 98.9299 62.202 98.9299 63.1168C98.9299 63.663 98.4449 63.9951 97.8419 63.9951Z" fill="white"/>
<path fill-rule="evenodd" clip-rule="evenodd" d="M101.016 63.9951C100.587 63.9951 100.281 63.8557 100.062 63.7117L100.316 63.2341C100.508 63.3659 100.727 63.4658 100.981 63.4658C101.177 63.4658 101.396 63.3963 101.396 63.1991C101.396 62.854 100.692 62.7971 100.347 62.3947C100.237 62.2676 100.167 62.106 100.167 61.8828C100.167 61.4412 100.522 61.039 101.182 61.039C101.488 61.039 101.755 61.1174 101.934 61.2186L101.922 61.7778C101.653 61.6431 101.457 61.5645 101.221 61.5645C101.02 61.5645 100.876 61.6558 100.876 61.7961C100.876 62.2554 102.104 62.202 102.104 63.1168C102.104 63.663 101.619 63.9951 101.016 63.9951Z" fill="white"/>
<path fill-rule="evenodd" clip-rule="evenodd" d="M104.755 61.5722C104.3 61.5722 103.951 61.9144 103.951 62.5221C103.951 63.1292 104.3 63.4714 104.755 63.4714C105.201 63.4714 105.551 63.1292 105.551 62.5221C105.551 61.9144 105.201 61.5722 104.755 61.5722ZM105.866 63.5534C105.595 63.829 105.219 63.9953 104.76 63.9953C104.322 63.9953 103.973 63.8734 103.715 63.6456C103.417 63.3791 103.255 62.9897 103.255 62.548C103.255 62.1238 103.404 61.7429 103.675 61.4679C103.937 61.2012 104.309 61.039 104.76 61.039C105.241 61.039 105.635 61.2012 105.896 61.4816C106.141 61.7429 106.26 62.1015 106.26 62.5037C106.26 62.9105 106.129 63.2914 105.866 63.5534Z" fill="white"/>
<path fill-rule="evenodd" clip-rule="evenodd" d="M108.936 63.9951C107.974 63.9951 107.44 63.3438 107.44 62.5387C107.44 61.7129 108.07 61.039 109.089 61.039C109.368 61.039 109.645 61.0878 109.846 61.1882L109.832 61.7656C109.57 61.6119 109.316 61.5728 109.12 61.5728C108.433 61.5728 108.171 62.0321 108.171 62.4907C108.171 63.0073 108.512 63.4224 109.054 63.4224C109.325 63.4224 109.548 63.3523 109.78 63.225L109.959 63.6845C109.605 63.9084 109.277 63.9951 108.936 63.9951Z" fill="white"/>
<path fill-rule="evenodd" clip-rule="evenodd" d="M111.204 63.9511H111.873V61.0703H111.204V63.9511Z" fill="white"/>
<path fill-rule="evenodd" clip-rule="evenodd" d="M114.536 62.2765C114.488 62.137 114.448 62.0139 114.431 61.9223H114.427C114.409 62.0183 114.37 62.141 114.321 62.2682L114.148 62.7313H114.694L114.536 62.2765ZM115.17 63.9506L114.895 63.2651H113.959L113.697 63.9506H113.04L114.173 61.0561H114.699L115.892 63.9506H115.17Z" fill="white"/>
<path fill-rule="evenodd" clip-rule="evenodd" d="M118.795 61.6073H118.034V63.951H117.356V61.6073H116.512V61.0697H118.934L118.795 61.6073Z" fill="white"/>
<path fill-rule="evenodd" clip-rule="evenodd" d="M120.093 63.9511H120.763V61.0703H120.093V63.9511Z" fill="white"/>
<path fill-rule="evenodd" clip-rule="evenodd" d="M123.552 61.5722C123.098 61.5722 122.748 61.9144 122.748 62.5221C122.748 63.1292 123.098 63.4714 123.552 63.4714C123.998 63.4714 124.349 63.1292 124.349 62.5221C124.349 61.9144 123.998 61.5722 123.552 61.5722ZM124.663 63.5534C124.393 63.829 124.017 63.9953 123.556 63.9953C123.12 63.9953 122.771 63.8734 122.513 63.6456C122.215 63.3791 122.053 62.9897 122.053 62.548C122.053 62.1238 122.202 61.7429 122.472 61.4679C122.735 61.2012 123.107 61.039 123.556 61.039C124.039 61.039 124.431 61.2012 124.694 61.4816C124.938 61.7429 125.057 62.1015 125.057 62.5037C125.057 62.9105 124.927 63.2914 124.663 63.5534Z" fill="white"/>
<path fill-rule="evenodd" clip-rule="evenodd" d="M128.476 63.952L127.277 62.4337C127.186 62.3174 127.101 62.2023 127.006 62.0759H126.997C127.011 62.1719 127.011 62.3644 127.011 62.4871V63.952H126.345V61.0703H127.015L128.174 62.5268C128.265 62.6431 128.349 62.7538 128.433 62.8756H128.44C128.433 62.7279 128.433 62.5185 128.433 62.4041V61.0703H129.097V63.952H128.476Z" fill="white"/>
<path fill-rule="evenodd" clip-rule="evenodd" d="M64.7188 61.6028H63.809V62.2198H64.7055L64.7105 62.7568H63.809V63.9465H63.1402V61.0652H64.8803L64.7188 61.6028Z" fill="white"/>
<path fill-rule="evenodd" clip-rule="evenodd" d="M67.5176 61.5682C67.0631 61.5682 66.7128 61.9094 66.7128 62.5171C66.7128 63.1252 67.0631 63.4664 67.5176 63.4664C67.9635 63.4664 68.3136 63.1252 68.3136 62.5171C68.3136 61.9094 67.9635 61.5682 67.5176 61.5682ZM68.6285 63.5494C68.3573 63.8252 67.9813 63.9913 67.522 63.9913C67.0848 63.9913 66.7357 63.8686 66.4773 63.6408C66.1796 63.3741 66.0175 62.9849 66.0175 62.5431C66.0175 62.119 66.1663 61.7389 66.4378 61.4639C66.6999 61.1972 67.0715 61.035 67.522 61.035C68.0031 61.035 68.397 61.1972 68.659 61.4767C68.9039 61.7389 69.0223 62.0975 69.0223 62.4997C69.0223 62.9057 68.8913 63.2874 68.6285 63.5494Z" fill="white"/>
<path fill-rule="evenodd" clip-rule="evenodd" d="M71.7003 61.5682C71.2459 61.5682 70.896 61.9094 70.896 62.5171C70.896 63.1252 71.2459 63.4664 71.7003 63.4664C72.1462 63.4664 72.4963 63.1252 72.4963 62.5171C72.4963 61.9094 72.1462 61.5682 71.7003 61.5682ZM72.8112 63.5494C72.5401 63.8252 72.1642 63.9913 71.7048 63.9913C71.2678 63.9913 70.9184 63.8686 70.6603 63.6408C70.3622 63.3741 70.2004 62.9849 70.2004 62.5431C70.2004 62.119 70.3491 61.7389 70.6206 61.4639C70.8826 61.1972 71.2544 61.035 71.7048 61.035C72.1859 61.035 72.5797 61.1972 72.8424 61.4767C73.0866 61.7389 73.2051 62.0975 73.2051 62.4997C73.2051 62.9057 73.074 63.2874 72.8112 63.5494Z" fill="white"/>
<path fill-rule="evenodd" clip-rule="evenodd" d="M76.4275 61.6028H75.6666V63.9465H74.989V61.6028H74.1448V61.0652H76.5671L76.4275 61.6028Z" fill="white"/>
<path fill-rule="evenodd" clip-rule="evenodd" d="M78.6895 62.7615H78.3963V63.4052H78.6724C78.9912 63.4052 79.1309 63.2947 79.1309 63.0632C79.1309 62.8712 78.9821 62.7615 78.6895 62.7615ZM78.5799 61.6115H78.3963V62.2192H78.6678C78.8168 62.2192 78.9476 62.0799 78.9476 61.9221C78.9476 61.7514 78.8294 61.6115 78.5799 61.6115ZM78.7682 63.9467H77.7266V61.0652H78.7154C79.3061 61.0652 79.5985 61.4325 79.5985 61.7957C79.5985 62.0144 79.4893 62.2467 79.271 62.3678V62.3723C79.6208 62.469 79.7996 62.7532 79.7996 63.0678C79.7996 63.4919 79.4592 63.9467 78.7682 63.9467Z" fill="white"/>
<path fill-rule="evenodd" clip-rule="evenodd" d="M82.2659 62.2718C82.2175 62.1322 82.1778 62.0089 82.1608 61.9184H82.1557C82.1387 62.0144 82.099 62.1361 82.0507 62.2632L81.877 62.7273H82.4234L82.2659 62.2718ZM82.8993 63.9466L82.6247 63.2603H81.6882L81.4261 63.9466H80.7698L81.9026 61.0521H82.4273L83.6218 63.9466H82.8993Z" fill="white"/>
<path fill-rule="evenodd" clip-rule="evenodd" d="M84.7869 63.9467V61.0652H85.4529V63.4052H86.4443V63.9467H84.7869Z" fill="white"/>
<path fill-rule="evenodd" clip-rule="evenodd" d="M87.629 63.9467V61.0652H88.2943V63.4052H89.2864V63.9467H87.629Z" fill="white"/>
<path fill-rule="evenodd" clip-rule="evenodd" d="M134.532 62.7702H134.239V63.4137H134.515C134.834 63.4137 134.974 63.3034 134.974 63.0725C134.974 62.8797 134.824 62.7702 134.532 62.7702ZM134.423 61.6208H134.239V62.2285H134.51C134.659 62.2285 134.79 62.0886 134.79 61.9314C134.79 61.7601 134.672 61.6208 134.423 61.6208ZM134.611 63.9554H133.569V61.0737H134.558C135.149 61.0737 135.441 61.441 135.441 61.8043C135.441 62.023 135.333 62.2552 135.114 62.3763V62.3808C135.464 62.4776 135.642 62.7619 135.642 63.0764C135.642 63.5006 135.302 63.9554 134.611 63.9554Z" fill="white"/>
<path fill-rule="evenodd" clip-rule="evenodd" d="M138.279 61.5768C137.825 61.5768 137.475 61.9182 137.475 62.5266C137.475 63.1345 137.825 63.4751 138.279 63.4751C138.725 63.4751 139.075 63.1345 139.075 62.5266C139.075 61.9182 138.725 61.5768 138.279 61.5768ZM139.39 63.558C139.119 63.8338 138.743 64 138.284 64C137.847 64 137.497 63.8771 137.239 63.6493C136.941 63.3828 136.779 62.9944 136.779 62.5518C136.779 62.1283 136.928 61.7475 137.199 61.4724C137.461 61.2058 137.833 61.0436 138.284 61.0436C138.765 61.0436 139.159 61.2058 139.42 61.4854C139.665 61.7475 139.784 62.1061 139.784 62.5082C139.784 62.9145 139.653 63.2959 139.39 63.558Z" fill="white"/>
<path fill-rule="evenodd" clip-rule="evenodd" d="M142.184 62.282C142.137 62.1418 142.097 62.0193 142.079 61.9278H142.075C142.058 62.0238 142.018 62.1465 141.969 62.2729L141.796 62.7368H142.342L142.184 62.282ZM142.818 63.9562L142.543 63.2698H141.607L141.345 63.9562H140.688L141.821 61.0617H142.346L143.54 63.9562H142.818Z" fill="white"/>
<path fill-rule="evenodd" clip-rule="evenodd" d="M145.625 61.6206H145.375V62.399H145.62C145.852 62.399 146.023 62.2239 146.023 61.9883C146.023 61.7776 145.865 61.6206 145.625 61.6206ZM146.259 63.9552C145.826 63.2035 145.673 62.9148 145.577 62.8751H145.375V63.9552H144.707V61.0737H145.607C146.398 61.0737 146.678 61.4631 146.678 61.9125C146.678 62.2802 146.42 62.5347 146.167 62.6527V62.6572C146.324 62.7487 146.591 63.2209 147.015 63.9552H146.259Z" fill="white"/>
<path fill-rule="evenodd" clip-rule="evenodd" d="M149.163 61.6206H148.857V63.4137H149.176C149.845 63.4137 150.12 62.9848 150.12 62.5124C150.12 61.9527 149.784 61.6206 149.163 61.6206ZM149.159 63.9552H148.188V61.0737H149.228C150.239 61.0737 150.843 61.6154 150.843 62.4905C150.843 63.4 150.135 63.9552 149.159 63.9552Z" fill="white"/>
<path fill-rule="evenodd" clip-rule="evenodd" d="M4.12934 61.6102H3.36836V63.9539H2.69061V61.6102H1.8466V61.0725H4.26869L4.12934 61.6102Z" fill="white"/>
<path fill-rule="evenodd" clip-rule="evenodd" d="M7.36773 63.9541V62.7727H6.09542V63.9541H5.42618V61.0725H6.09542V62.2053H7.36773V61.0725H8.03659V63.9541H7.36773Z" fill="white"/>
<path fill-rule="evenodd" clip-rule="evenodd" d="M9.43642 63.9541V61.0725H11.1682L11.0058 61.6104H10.1057V62.2146H11.0106V62.7561H10.1057V63.4164H11.1595V63.9541H9.43642Z" fill="white"/>
<path fill-rule="evenodd" clip-rule="evenodd" d="M15.7615 63.9439H16.4309V61.0623H15.7615V63.9439Z" fill="white"/>
<path fill-rule="evenodd" clip-rule="evenodd" d="M19.9572 63.9439L18.7591 62.4258C18.6681 62.3085 18.5833 62.1951 18.4877 62.0679H18.479C18.4926 62.1637 18.4926 62.3565 18.4926 62.4784V63.9439H17.8274V61.0623H18.4961L19.6553 62.5187C19.7478 62.6352 19.8305 62.7451 19.9137 62.8674H19.922C19.9137 62.7198 19.9137 62.5096 19.9137 62.3962V61.0623H20.5781V63.9439H19.9572Z" fill="white"/>
<path fill-rule="evenodd" clip-rule="evenodd" d="M24.0651 61.6002H23.3039V63.9431H22.6263V61.6002H21.782V61.0617H24.2044L24.0651 61.6002Z" fill="white"/>
<path fill-rule="evenodd" clip-rule="evenodd" d="M25.3615 63.9439V61.0623H27.0935L26.9311 61.6002H26.0308V62.2034H26.9367V62.7451H26.0308V63.4055H27.0846V63.9439H25.3615Z" fill="white"/>
<path fill-rule="evenodd" clip-rule="evenodd" d="M29.3013 61.6085H29.0518V62.3869H29.2968C29.5283 62.3869 29.699 62.2119 29.699 61.9764C29.699 61.7662 29.5416 61.6085 29.3013 61.6085ZM29.9355 63.9431C29.5023 63.1922 29.3489 62.9026 29.2533 62.8637H29.0518V63.9431H28.3831V61.0617H29.2838C30.0748 61.0617 30.3547 61.4509 30.3547 61.9019C30.3547 62.269 30.0965 62.5227 29.8432 62.6406V62.645C30.0009 62.7366 30.2676 63.209 30.6914 63.9431H29.9355Z" fill="white"/>
<path fill-rule="evenodd" clip-rule="evenodd" d="M33.995 63.9439L32.7968 62.4258C32.7055 62.3085 32.6213 62.1951 32.5253 62.0679H32.517C32.53 62.1637 32.53 62.3565 32.53 62.4784V63.9439H31.865V61.0623H32.5342L33.6933 62.5187C33.7852 62.6352 33.8682 62.7451 33.9513 62.8674H33.96C33.9513 62.7198 33.9513 62.5096 33.9513 62.3962V61.0623H34.6155V63.9439H33.995Z" fill="white"/>
<path fill-rule="evenodd" clip-rule="evenodd" d="M37.2778 62.2691C37.2306 62.1296 37.1913 62.0063 37.1743 61.9149H37.1695C37.1518 62.0107 37.1126 62.1334 37.0644 62.2606L36.8896 62.7239H37.4362L37.2778 62.2691ZM37.9124 63.9432L37.6372 63.2577H36.7013L36.4398 63.9432H35.7832L36.9165 61.0487H37.44L38.6353 63.9432H37.9124Z" fill="white"/>
<path fill-rule="evenodd" clip-rule="evenodd" d="M41.5358 61.6002H40.7748V63.9431H40.0973V61.6002H39.2537V61.0617H41.6754L41.5358 61.6002Z" fill="white"/>
<path fill-rule="evenodd" clip-rule="evenodd" d="M42.8344 63.9439H43.5046V61.0623H42.8344V63.9439Z" fill="white"/>
<path fill-rule="evenodd" clip-rule="evenodd" d="M46.2941 61.5643C45.8393 61.5643 45.4894 61.9055 45.4894 62.514C45.4894 63.1213 45.8393 63.4625 46.2941 63.4625C46.7402 63.4625 47.0909 63.1213 47.0909 62.514C47.0909 61.9055 46.7402 61.5643 46.2941 61.5643ZM47.405 63.5453C47.1335 63.8211 46.758 63.9874 46.2987 63.9874C45.8612 63.9874 45.513 63.8646 45.2533 63.6376C44.9562 63.3709 44.7946 62.9817 44.7946 62.5391C44.7946 62.1157 44.9428 61.7348 45.2144 61.4599C45.4768 61.1933 45.8482 61.0311 46.2987 61.0311C46.7797 61.0311 47.1735 61.1933 47.4363 61.4727C47.6802 61.7348 47.7996 62.0936 47.7996 62.4958C47.7996 62.9018 47.6678 63.2835 47.405 63.5453Z" fill="white"/>
<path fill-rule="evenodd" clip-rule="evenodd" d="M51.2156 63.9439L50.0182 62.4258C49.9274 62.3085 49.8422 62.1951 49.7462 62.0679H49.7383C49.7511 62.1637 49.7511 62.3565 49.7511 62.4784V63.9439H49.0867V61.0623H49.7546L50.9138 62.5187C51.0069 62.6352 51.089 62.7451 51.172 62.8674H51.1817C51.172 62.7198 51.172 62.5096 51.172 62.3962V61.0623H51.8364V63.9439H51.2156Z" fill="white"/>
<path fill-rule="evenodd" clip-rule="evenodd" d="M54.4998 62.2691C54.4514 62.1296 54.4117 62.0063 54.3947 61.9149H54.39C54.373 62.0107 54.3329 62.1334 54.2846 62.2606L54.11 62.7239H54.6571L54.4998 62.2691ZM55.1334 63.9432L54.8586 63.2577H53.9219L53.6604 63.9432H53.0037L54.1363 61.0487H54.6619L55.8555 63.9432H55.1334Z" fill="white"/>
<path fill-rule="evenodd" clip-rule="evenodd" d="M57.0231 63.9439V61.0623H57.6885V63.4014H58.6805V63.9439H57.0231Z" fill="white"/>
</svg>
