<svg width="24" height="24" viewBox="0 0 24 24" fill="none" xmlns="http://www.w3.org/2000/svg">
<path d="M4.86572 11.6961C4.86572 11.9221 4.96366 12.1482 5.13693 12.3139L10.109 17.2785C10.2898 17.4517 10.4857 17.5346 10.7042 17.5346C11.1788 17.5346 11.5253 17.1956 11.5253 16.736C11.5253 16.495 11.4349 16.2916 11.2767 16.1409L9.58168 14.4233L7.39697 12.4269L9.15227 12.5324H18.2829C18.7801 12.5324 19.1266 12.1858 19.1266 11.6961C19.1266 11.1989 18.7801 10.8524 18.2829 10.8524H9.15227L7.40451 10.9579L9.58168 8.96149L11.2767 7.24385C11.4349 7.09318 11.5253 6.88978 11.5253 6.64871C11.5253 6.18917 11.1788 5.85016 10.7042 5.85016C10.4857 5.85016 10.2823 5.93303 10.0864 6.12136L5.13693 11.0709C4.96366 11.2366 4.86572 11.4626 4.86572 11.6961Z" fill="#181F4E"/>
</svg>
