<svg width="24" height="24" viewBox="0 0 24 24" fill="none" xmlns="http://www.w3.org/2000/svg">
<path d="M19.1266 11.6961C19.1266 11.4626 19.0287 11.2366 18.8554 11.0709L13.9059 6.12136C13.71 5.93303 13.5066 5.85016 13.2957 5.85016C12.8135 5.85016 12.467 6.18917 12.467 6.64871C12.467 6.88978 12.5649 7.09318 12.7156 7.24385L14.4106 8.96149L16.5954 10.9579L14.8476 10.8524H5.71701C5.21226 10.8524 4.86572 11.1989 4.86572 11.6961C4.86572 12.1858 5.21226 12.5324 5.71701 12.5324H14.8476L16.5954 12.4269L14.4106 14.4233L12.7156 16.1409C12.5649 16.2916 12.467 16.495 12.467 16.736C12.467 17.1956 12.8135 17.5346 13.2957 17.5346C13.5066 17.5346 13.71 17.4517 13.8908 17.2785L18.8554 12.3139C19.0287 12.1482 19.1266 11.9221 19.1266 11.6961Z" fill="#181F4E"/>
</svg>
