<svg width="25" height="24" viewBox="0 0 25 24" fill="none" xmlns="http://www.w3.org/2000/svg">
<path d="M5.28934 9.00712H19.3694C19.7461 9.00712 20.055 8.69824 20.055 8.32157C20.055 7.94489 19.7461 7.64355 19.3694 7.64355H5.28934C4.91267 7.64355 4.61133 7.94489 4.61133 8.32157C4.61133 8.69071 4.91267 9.00712 5.28934 9.00712ZM5.28934 12.3972H19.3694C19.7461 12.3972 20.055 12.0883 20.055 11.7192C20.055 11.335 19.7461 11.0261 19.3694 11.0261H5.28934C4.91267 11.0261 4.61133 11.335 4.61133 11.7192C4.61133 12.0883 4.91267 12.3972 5.28934 12.3972ZM5.28934 15.7948H19.3694C19.7461 15.7948 20.055 15.4859 20.055 15.1017C20.055 14.725 19.7461 14.4237 19.3694 14.4237H5.28934C4.91267 14.4237 4.61133 14.7326 4.61133 15.1017C4.61133 15.4784 4.91267 15.7948 5.28934 15.7948Z" fill="#181F4E"/>
</svg>
