<svg width="25" height="24" viewBox="0 0 25 24" fill="none" xmlns="http://www.w3.org/2000/svg">
<path d="M19.4601 11.6966C19.4601 11.463 19.3622 11.237 19.1889 11.0713L14.2394 6.12179C14.0435 5.93345 13.8401 5.85059 13.6292 5.85059C13.147 5.85059 12.8005 6.18959 12.8005 6.64914C12.8005 6.89021 12.8984 7.09361 13.0491 7.24428L14.7441 8.96191L16.9289 10.9583L15.1811 10.8528H6.0505C5.54576 10.8528 5.19922 11.1994 5.19922 11.6966C5.19922 12.1862 5.54576 12.5328 6.0505 12.5328H15.1811L16.9289 12.4273L14.7441 14.4237L13.0491 16.1413C12.8984 16.292 12.8005 16.4954 12.8005 16.7365C12.8005 17.196 13.147 17.535 13.6292 17.535C13.8401 17.535 14.0435 17.4521 14.2243 17.2789L19.1889 12.3143C19.3622 12.1486 19.4601 11.9226 19.4601 11.6966Z" fill="#181F4E"/>
</svg>
