<svg width="48" height="48" viewBox="0 0 48 48" fill="none" xmlns="http://www.w3.org/2000/svg">
<path d="M36.2041 11.2785C34.6522 9.72663 32.5127 9.42529 29.7705 9.42529H18.1689C15.472 9.42529 13.3174 9.7417 11.7806 11.2785C10.2287 12.8304 9.94238 14.9549 9.94238 17.6669V29.163C9.94238 31.9052 10.2287 34.0296 11.7655 35.5815C13.3325 37.1184 15.472 37.4197 18.2141 37.4197H29.7705C32.5127 37.4197 34.6522 37.1184 36.2041 35.5815C37.756 34.0296 38.0423 31.9052 38.0423 29.163V17.6971C38.0423 14.9549 37.756 12.8154 36.2041 11.2785ZM35.0891 17.2902V29.5698C35.0891 31.1368 34.8782 32.5832 34.0495 33.4119C33.2058 34.2557 31.7443 34.4666 30.1924 34.4666H17.7923C16.2404 34.4666 14.7789 34.2557 13.9351 33.4119C13.0914 32.5832 12.8955 31.1368 12.8955 29.5698V17.3204C12.8955 15.7233 13.0914 14.2769 13.9201 13.4331C14.7638 12.5894 16.2404 12.3784 17.8224 12.3784H30.1924C31.7443 12.3784 33.2058 12.6044 34.0495 13.4331C34.8933 14.2769 35.0891 15.7233 35.0891 17.2902ZM23.6684 26.4058C24.4971 26.4058 25.0244 25.9387 25.0545 25.3209C25.0696 25.2607 25.0696 25.1853 25.0696 25.1401C25.1148 24.3567 25.6422 23.8293 26.6215 23.1965C28.1131 22.2171 29.0774 21.3583 29.0774 19.6106C29.0774 17.0944 26.8174 15.663 24.1505 15.663C21.559 15.663 19.8112 16.8382 19.3442 18.2545C19.2538 18.5107 19.2086 18.7668 19.2086 19.038C19.2086 19.7612 19.766 20.2132 20.3838 20.2132C20.9262 20.2132 21.3029 19.9872 21.6042 19.5804L21.8302 19.2791C22.3425 18.4504 23.0657 18.0135 23.9697 18.0135C25.1902 18.0135 26.0038 18.7367 26.0038 19.7612C26.0038 20.7104 25.371 21.1775 24.0903 22.0665C23.0205 22.8048 22.2521 23.5882 22.2521 24.9593V25.1251C22.2521 25.9688 22.7493 26.4058 23.6684 26.4058ZM23.6383 31.0313C24.6025 31.0313 25.4011 30.3232 25.4011 29.374C25.4011 28.4247 24.6176 27.7317 23.6383 27.7317C22.674 27.7317 21.8754 28.4398 21.8754 29.374C21.8754 30.3232 22.689 31.0313 23.6383 31.0313Z" fill="white"/>
</svg>
