<svg width="48" height="48" viewBox="0 0 48 48" fill="none" xmlns="http://www.w3.org/2000/svg">
<path d="M5.57324 22.654C5.57324 23.4375 6.17592 24.1155 7.14021 24.1155C7.60728 24.1155 8.02916 23.8593 8.40583 23.558L10.1235 22.1116V36.1238C10.1235 38.3538 11.4644 39.6797 13.7697 39.6797H34.1553C36.4454 39.6797 37.8015 38.3538 37.8015 36.1238V22.0362L39.6095 23.558C39.9711 23.8593 40.393 24.1155 40.8601 24.1155C41.749 24.1155 42.427 23.558 42.427 22.6841C42.427 22.1718 42.2312 21.765 41.8394 21.4336L37.8015 18.0284V11.6099C37.8015 10.9319 37.3645 10.51 36.6865 10.51H34.6073C33.9443 10.51 33.4923 10.9319 33.4923 11.6099V14.4124L26.1547 8.24997C24.8439 7.15008 23.1865 7.15008 21.8757 8.24997L6.17592 21.4336C5.76911 21.765 5.57324 22.217 5.57324 22.654ZM28.3394 26.8125C28.3394 26.1043 27.8874 25.6523 27.1793 25.6523H20.8511C20.143 25.6523 19.6759 26.1043 19.6759 26.8125V36.6813H14.5682C13.6341 36.6813 13.1218 36.154 13.1218 35.2048V19.5954L23.3523 11.0072C23.7741 10.6456 24.2563 10.6456 24.6782 11.0072L34.7881 19.505V35.2048C34.7881 36.154 34.2758 36.6813 33.3417 36.6813H28.3394V26.8125Z" fill="white"/>
</svg>
