<svg width="24" height="24" viewBox="0 0 24 24" fill="none" xmlns="http://www.w3.org/2000/svg">
<path d="M4.86621 11.6966C4.86621 11.9226 4.96415 12.1486 5.13742 12.3143L10.1095 17.2789C10.2903 17.4521 10.4862 17.535 10.7047 17.535C11.1793 17.535 11.5258 17.196 11.5258 16.7365C11.5258 16.4954 11.4354 16.292 11.2772 16.1413L9.58217 14.4237L7.39746 12.4273L9.15276 12.5328H18.2833C18.7806 12.5328 19.1271 12.1862 19.1271 11.6966C19.1271 11.1994 18.7806 10.8528 18.2833 10.8528H9.15276L7.40499 10.9583L9.58217 8.96191L11.2772 7.24428C11.4354 7.09361 11.5258 6.89021 11.5258 6.64914C11.5258 6.18959 11.1793 5.85059 10.7047 5.85059C10.4862 5.85059 10.2828 5.93345 10.0869 6.12179L5.13742 11.0713C4.96415 11.237 4.86621 11.463 4.86621 11.6966Z" fill="#181F4E"/>
</svg>
