<svg width="112" height="32" viewBox="0 0 112 32" fill="none" xmlns="http://www.w3.org/2000/svg">
<path d="M89.1026 31.5591H82.0526L92.7948 0.425656H101.273L112 31.5591H104.95L97.1555 7.54015H96.9124L89.1026 31.5591ZM88.662 19.3216H105.315V24.4599H88.662V19.3216Z" fill="white"/>
<path d="M75.0047 9.37957C74.8832 8.15329 74.3615 7.20063 73.4397 6.52162C72.518 5.8426 71.267 5.50309 69.6868 5.50309C68.6131 5.50309 67.7065 5.65511 66.9671 5.95915C66.2277 6.25305 65.6604 6.6635 65.2654 7.1905C64.8805 7.7175 64.688 8.31544 64.688 8.98432C64.6677 9.54173 64.7842 10.0282 65.0375 10.4437C65.3008 10.8592 65.6604 11.219 66.1162 11.523C66.5721 11.8169 67.0988 12.0754 67.6964 12.2983C68.2941 12.5112 68.9322 12.6936 69.6109 12.8456L72.4066 13.5145C73.7639 13.8185 75.0098 14.2239 76.1443 14.7306C77.2788 15.2374 78.2613 15.8606 79.0919 16.6005C79.9225 17.3403 80.5657 18.2119 81.0216 19.2152C81.4875 20.2185 81.7255 21.3688 81.7357 22.666C81.7255 24.5713 81.2393 26.2233 80.277 27.6219C79.3249 29.0103 77.9473 30.0896 76.1443 30.8599C74.3514 31.62 72.1888 32 69.6564 32C67.1444 32 64.9564 31.6149 63.0926 30.8447C61.239 30.0744 59.7905 28.9343 58.7471 27.4242C57.714 25.904 57.172 24.0241 57.1214 21.7843H63.4877C63.5586 22.8282 63.8574 23.6998 64.3841 24.3991C64.921 25.0882 65.6351 25.6101 66.5265 25.9648C67.428 26.3094 68.446 26.4817 69.5805 26.4817C70.6947 26.4817 71.662 26.3196 72.4825 25.9952C73.3131 25.6709 73.9563 25.22 74.4122 24.6423C74.868 24.0646 75.0959 23.4008 75.0959 22.6508C75.0959 21.9515 74.8882 21.3637 74.4729 20.8874C74.0678 20.4111 73.4701 20.0057 72.68 19.6713C71.9001 19.3368 70.9429 19.0328 69.8084 18.7591L66.4201 17.9078C63.7966 17.2694 61.7252 16.2711 60.2058 14.9131C58.6864 13.555 57.9317 11.7257 57.9419 9.42518C57.9317 7.54014 58.4331 5.89327 59.4461 4.48456C60.4691 3.07585 61.872 1.97625 63.6548 1.18575C65.4376 0.39525 67.4634 0 69.7324 0C72.0419 0 74.0576 0.39525 75.7796 1.18575C77.5117 1.97625 78.8589 3.07585 79.8212 4.48456C80.7835 5.89327 81.2799 7.52494 81.3102 9.37957H75.0047Z" fill="white"/>
<path d="M54.9622 15.9924C54.9622 19.3875 54.319 22.2759 53.0325 24.6575C51.7562 27.0391 50.014 28.8583 47.8058 30.115C45.6077 31.3615 43.1362 31.9848 40.3911 31.9848C37.6258 31.9848 35.1441 31.3565 32.9461 30.0998C30.748 28.8431 29.0108 27.0239 27.7345 24.6423C26.4582 22.2607 25.8201 19.3774 25.8201 15.9924C25.8201 12.5973 26.4582 9.70895 27.7345 7.32732C29.0108 4.94569 30.748 3.13159 32.9461 1.88504C35.1441 0.628346 37.6258 0 40.3911 0C43.1362 0 45.6077 0.628346 47.8058 1.88504C50.014 3.13159 51.7562 4.94569 53.0325 7.32732C54.319 9.70895 54.9622 12.5973 54.9622 15.9924ZM48.292 15.9924C48.292 13.7932 47.9628 11.9386 47.3044 10.4285C46.6561 8.91845 45.7394 7.77324 44.5543 6.99288C43.3692 6.21251 41.9814 5.82233 40.3911 5.82233C38.8008 5.82233 37.4131 6.21251 36.228 6.99288C35.0428 7.77324 34.1211 8.91845 33.4627 10.4285C32.8144 11.9386 32.4902 13.7932 32.4902 15.9924C32.4902 18.1916 32.8144 20.0462 33.4627 21.5563C34.1211 23.0664 35.0428 24.2116 36.228 24.9919C37.4131 25.7723 38.8008 26.1625 40.3911 26.1625C41.9814 26.1625 43.3692 25.7723 44.5543 24.9919C45.7394 24.2116 46.6561 23.0664 47.3044 21.5563C47.9628 20.0462 48.292 18.1916 48.292 15.9924Z" fill="white"/>
<path d="M0 31.5591V0.425656H12.2768C14.6268 0.425656 16.6324 0.846242 18.2936 1.68741C19.9649 2.51845 21.2361 3.69913 22.1073 5.22946C22.9885 6.74965 23.4292 8.5384 23.4292 10.5957C23.4292 12.6632 22.9835 14.4418 22.0921 15.9316C21.2007 17.4112 19.9092 18.5463 18.2176 19.3368C16.5361 20.1273 14.5001 20.5226 12.1096 20.5226H3.88966V15.2323H11.046C12.3021 15.2323 13.3454 15.06 14.176 14.7154C15.0066 14.3709 15.6245 13.854 16.0297 13.1648C16.445 12.4757 16.6526 11.6193 16.6526 10.5957C16.6526 9.562 16.445 8.69042 16.0297 7.981C15.6245 7.27158 15.0015 6.73444 14.1608 6.3696C13.3302 5.99462 12.2818 5.80713 11.0157 5.80713H6.579V31.5591H0ZM16.8046 17.391L24.5383 31.5591H17.2756L9.70897 17.391H16.8046Z" fill="white"/>
</svg>
