<svg width="209" height="60" viewBox="0 0 209 60" fill="none" xmlns="http://www.w3.org/2000/svg">
<path d="M200.417 60H8.37412C4.15108 60 0.692383 56.6231 0.692383 52.5V7.5C0.692383 3.37688 4.15108 0 8.37412 0H200.417C204.641 0 208.099 3.37688 208.099 7.5V52.5C208.099 56.6231 204.641 60 200.417 60Z" fill="#201F20"/>
<path d="M200.417 1.20187C203.974 1.20187 206.868 4.0275 206.868 7.5V52.5C206.868 55.9725 203.974 58.7981 200.417 58.7981H8.37412C4.81747 58.7981 1.92338 55.9725 1.92338 52.5V7.5C1.92338 4.0275 4.81747 1.20187 8.37412 1.20187H200.417ZM200.417 0H8.37412C4.15108 0 0.692383 3.37688 0.692383 7.5V52.5C0.692383 56.6231 4.15108 60 8.37412 60H200.417C204.641 60 208.099 56.6231 208.099 52.5V7.5C208.099 3.37688 204.641 0 200.417 0Z" fill="#A6A6A6"/>
<path d="M73.5422 15.3656C73.5422 16.6181 73.1581 17.6213 72.4014 18.3694C71.5315 19.2563 70.3984 19.7025 69.0099 19.7025C67.6829 19.7025 66.5499 19.2488 65.6204 18.3544C64.689 17.4469 64.2242 16.3331 64.2242 15C64.2242 13.6669 64.689 12.5531 65.6204 11.6531C66.5499 10.7513 67.6829 10.2975 69.0099 10.2975C69.6706 10.2975 70.3005 10.4306 70.9016 10.6781C71.5007 10.9275 71.9885 11.265 72.3419 11.6813L71.5392 12.4725C70.9227 11.7619 70.0835 11.4113 69.0099 11.4113C68.0421 11.4113 67.2028 11.7413 66.4903 12.4069C65.7855 13.0744 65.4322 13.9388 65.4322 15C65.4322 16.0613 65.7855 16.9331 66.4903 17.6006C67.2028 18.2588 68.0421 18.5963 69.0099 18.5963C70.0374 18.5963 70.9016 18.2588 71.5833 17.5931C72.0327 17.1525 72.2881 16.545 72.3553 15.7688H69.0099V14.685H73.473C73.5268 14.9194 73.5422 15.1463 73.5422 15.3656Z" fill="white"/>
<path d="M80.6228 11.6081H76.4305V14.4581H80.2099V15.5419H76.4305V18.3919H80.6228V19.4962H75.2436V10.5037H80.6228V11.6081Z" fill="white"/>
<path d="M85.6197 19.4962H84.4328V11.6081H81.8614V10.5037H88.193V11.6081H85.6197V19.4962Z" fill="white"/>
<path d="M92.7753 19.4962V10.5037H93.9602V19.4962H92.7753Z" fill="white"/>
<path d="M99.2126 19.4962H98.0353V11.6081H95.4543V10.5037H101.794V11.6081H99.2126V19.4962Z" fill="white"/>
<path d="M113.781 18.3394C112.873 19.2488 111.747 19.7025 110.405 19.7025C109.055 19.7025 107.929 19.2488 107.021 18.3394C106.115 17.4319 105.663 16.3181 105.663 15C105.663 13.6819 106.115 12.5681 107.021 11.6606C107.929 10.7513 109.055 10.2975 110.405 10.2975C111.739 10.2975 112.865 10.7513 113.773 11.6681C114.687 12.5831 115.139 13.6894 115.139 15C115.139 16.3181 114.687 17.4319 113.781 18.3394ZM107.899 17.5856C108.582 18.2588 109.414 18.5963 110.405 18.5963C111.388 18.5963 112.227 18.2588 112.903 17.5856C113.585 16.9125 113.931 16.0481 113.931 15C113.931 13.9519 113.585 13.0875 112.903 12.4144C112.227 11.7413 111.388 11.4038 110.405 11.4038C109.414 11.4038 108.582 11.7413 107.899 12.4144C107.217 13.0875 106.871 13.9519 106.871 15C106.871 16.0481 107.217 16.9125 107.899 17.5856Z" fill="white"/>
<path d="M116.804 19.4962V10.5037H118.244L122.722 17.4975H122.774L122.722 15.7687V10.5037H123.907V19.4962H122.671L117.981 12.1575H117.929L117.981 13.8937V19.4962H116.804Z" fill="white"/>
<path d="M105.371 32.6288C101.763 32.6288 98.815 35.31 98.815 39.0094C98.815 42.6788 101.763 45.3882 105.371 45.3882C108.988 45.3882 111.935 42.6788 111.935 39.0094C111.935 35.31 108.988 32.6288 105.371 32.6288ZM105.371 42.8757C103.391 42.8757 101.688 41.28 101.688 39.0094C101.688 36.7088 103.391 35.1413 105.371 35.1413C107.351 35.1413 109.062 36.7088 109.062 39.0094C109.062 41.28 107.351 42.8757 105.371 42.8757ZM91.0661 32.6288C87.4499 32.6288 84.5097 35.31 84.5097 39.0094C84.5097 42.6788 87.4499 45.3882 91.0661 45.3882C94.6803 45.3882 97.6224 42.6788 97.6224 39.0094C97.6224 35.31 94.6803 32.6288 91.0661 32.6288ZM91.0661 42.8757C89.0842 42.8757 87.375 41.28 87.375 39.0094C87.375 36.7088 89.0842 35.1413 91.0661 35.1413C93.046 35.1413 94.7495 36.7088 94.7495 39.0094C94.7495 41.28 93.046 42.8757 91.0661 42.8757ZM74.0434 34.5844V37.2957H80.6746C80.4806 38.8107 79.9621 39.9244 79.1671 40.7007C78.1992 41.6382 76.6916 42.6788 74.0434 42.6788C69.9624 42.6788 66.7668 39.4632 66.7668 35.4788C66.7668 31.4944 69.9624 28.2788 74.0434 28.2788C76.2499 28.2788 77.8554 29.1207 79.0403 30.2119L80.9972 28.3013C79.3399 26.7563 77.1353 25.5694 74.0434 25.5694C68.4472 25.5694 63.7441 30.015 63.7441 35.4788C63.7441 40.9425 68.4472 45.3882 74.0434 45.3882C77.068 45.3882 79.3399 44.4207 81.1259 42.6057C82.9561 40.8188 83.5265 38.3063 83.5265 36.2775C83.5265 35.6475 83.4727 35.0682 83.3767 34.5844H74.0434ZM143.651 36.6863C143.112 35.2594 141.447 32.6288 138.055 32.6288C134.694 32.6288 131.896 35.2144 131.896 39.0094C131.896 42.5832 134.666 45.3882 138.378 45.3882C141.379 45.3882 143.112 43.6013 143.824 42.5607L141.597 41.1113C140.853 42.1725 139.841 42.8757 138.378 42.8757C136.924 42.8757 135.881 42.225 135.213 40.9425L143.953 37.4119L143.651 36.6863ZM134.741 38.8107C134.666 36.3507 136.697 35.0907 138.153 35.0907C139.294 35.0907 140.262 35.6475 140.584 36.4444L134.741 38.8107ZM127.637 45H130.51V26.25H127.637V45ZM122.932 34.05H122.836C122.191 33.3038 120.96 32.6288 119.4 32.6288C116.128 32.6288 113.136 35.4338 113.136 39.03C113.136 42.6057 116.128 45.3882 119.4 45.3882C120.96 45.3882 122.191 44.7075 122.836 43.9388H122.932V44.8538C122.932 47.2932 121.597 48.6038 119.444 48.6038C117.689 48.6038 116.6 47.3663 116.151 46.3257L113.652 47.3438C114.372 49.035 116.279 51.1163 119.444 51.1163C122.813 51.1163 125.655 49.1813 125.655 44.4732V33.0169H122.932V34.05ZM119.646 42.8757C117.666 42.8757 116.009 41.2575 116.009 39.03C116.009 36.7819 117.666 35.1413 119.646 35.1413C121.597 35.1413 123.135 36.7819 123.135 39.03C123.135 41.2575 121.597 42.8757 119.646 42.8757ZM157.102 26.25H150.231V45H153.096V37.8957H157.102C160.284 37.8957 163.405 35.6475 163.405 32.0719C163.405 28.4982 160.277 26.25 157.102 26.25ZM157.177 35.2875H153.096V28.8582H157.177C159.316 28.8582 160.538 30.5925 160.538 32.0719C160.538 33.5232 159.316 35.2875 157.177 35.2875ZM174.889 32.5932C172.819 32.5932 170.666 33.4857 169.781 35.4638L172.323 36.5044C172.871 35.4638 173.877 35.1263 174.941 35.1263C176.427 35.1263 177.935 35.9982 177.958 37.5375V37.7344C177.439 37.4419 176.329 37.0088 174.964 37.0088C172.225 37.0088 169.435 38.4807 169.435 41.2275C169.435 43.74 171.678 45.3582 174.2 45.3582C176.128 45.3582 177.192 44.5088 177.86 43.5207H177.958V44.97H180.725V37.7775C180.725 34.4532 178.183 32.5932 174.889 32.5932ZM174.543 42.8682C173.606 42.8682 172.3 42.4144 172.3 41.28C172.3 39.8288 173.929 39.2719 175.339 39.2719C176.6 39.2719 177.192 39.5438 177.958 39.9019C177.733 41.6382 176.203 42.8682 174.543 42.8682ZM190.808 33.0038L187.514 41.1319H187.416L184.011 33.0038H180.921L186.037 44.3625L183.118 50.6832H186.112L193.996 33.0038H190.808ZM164.98 45H167.853V26.25H164.98V45Z" fill="white"/>
<path d="M16.7242 11.3081C16.2729 11.7693 16.0117 12.4875 16.0117 13.4175V46.59C16.0117 47.52 16.2729 48.2381 16.7242 48.6993L16.8355 48.8006L35.8747 30.2194V29.7806L16.8355 11.1993L16.7242 11.3081Z" fill="url(#paint0_linear_4084_36159)"/>
<path d="M42.214 36.4162L35.8747 30.2194V29.7806L42.2217 23.5837L42.3638 23.6644L49.8804 27.84C52.0255 29.025 52.0255 30.975 49.8804 32.1675L42.3638 36.3356L42.214 36.4162Z" fill="url(#paint1_linear_4084_36159)"/>
<path d="M42.3638 36.3356L35.8748 30L16.7242 48.6993C17.4366 49.4306 18.5985 49.5187 19.9198 48.7875L42.3638 36.3356Z" fill="url(#paint2_linear_4084_36159)"/>
<path d="M42.3638 23.6644L19.9198 11.2125C18.5985 10.4888 17.4366 10.5768 16.7242 11.3081L35.8748 30L42.3638 23.6644Z" fill="url(#paint3_linear_4084_36159)"/>
<defs>
<linearGradient id="paint0_linear_4084_36159" x1="190.448" y1="2.97624" x2="178.722" y2="81.5654" gradientUnits="userSpaceOnUse">
<stop stop-color="#00A0FF"/>
<stop offset="0.0066" stop-color="#00A1FF"/>
<stop offset="0.2601" stop-color="#00BEFF"/>
<stop offset="0.5122" stop-color="#00D2FF"/>
<stop offset="0.7604" stop-color="#00DFFF"/>
<stop offset="1" stop-color="#00E3FF"/>
</linearGradient>
<linearGradient id="paint1_linear_4084_36159" x1="223.832" y1="30.0098" x2="-269.957" y2="30.0098" gradientUnits="userSpaceOnUse">
<stop stop-color="#FFE000"/>
<stop offset="0.4087" stop-color="#FFBD00"/>
<stop offset="0.7754" stop-color="#FFA500"/>
<stop offset="1" stop-color="#FF9C00"/>
</linearGradient>
<linearGradient id="paint2_linear_4084_36159" x1="179.555" y1="70.7106" x2="109.704" y2="256.814" gradientUnits="userSpaceOnUse">
<stop stop-color="#FF3A44"/>
<stop offset="1" stop-color="#C31162"/>
</linearGradient>
<linearGradient id="paint3_linear_4084_36159" x1="11.9035" y1="59.7357" x2="27.1431" y2="44.127" gradientUnits="userSpaceOnUse">
<stop stop-color="#32A071"/>
<stop offset="0.0685" stop-color="#2DA771"/>
<stop offset="0.4762" stop-color="#15CF74"/>
<stop offset="0.8009" stop-color="#06E775"/>
<stop offset="1" stop-color="#00F076"/>
</linearGradient>
</defs>
</svg>
