<svg width="176" height="72" viewBox="0 0 176 72" fill="none" xmlns="http://www.w3.org/2000/svg">
<path fill-rule="evenodd" clip-rule="evenodd" d="M80.1818 38.1768H100.153L89.8517 11.7877L80.1818 38.1768ZM84.2478 11.9689C84.7887 10.4306 85.7854 7.26858 85.7854 6.6363C85.7854 3.02334 82.4398 2.93037 78.8258 2.38976L79.5639 0.400391H95.8156C95.8156 0.400391 110.191 40.2217 115.055 53.4678C116.68 57.8941 120.918 61.2228 123.849 61.2228H115.109C108.35 61.2228 106.318 55.2577 105.6 53.2685C104.622 50.5572 101.691 42.4251 101.691 42.4251H78.6455L71.8672 61.2228H66.2651L84.2478 11.9689Z" fill="white"/>
<path fill-rule="evenodd" clip-rule="evenodd" d="M132.744 53.2701C132.744 56.976 136.45 56.976 141.421 56.976C151.361 56.976 155.609 52.5481 155.609 43.3282C155.609 34.3825 148.922 31.2189 140.968 31.2189H132.744V53.2701ZM132.744 26.9709H138.8C146.571 26.9709 152.537 24.4409 152.537 15.4952C152.537 7.3598 147.927 4.64998 139.703 4.64998C134.28 4.64998 132.744 4.92127 132.744 9.3507V26.9709ZM122.803 12.6926C122.803 3.74685 122.623 3.74685 114.219 2.39128L113.477 0.400391H141.059C151.451 0.400391 162.476 2.84219 162.476 15.0427C162.476 23.9001 156.062 27.3334 151.633 28.7804V28.9602C158.049 30.2259 165.549 33.5678 165.549 45.045C165.549 61.2243 147.205 61.2243 139.793 61.2243H132.744C122.747 61.2243 122.803 54.994 122.803 53.2821V12.6926Z" fill="white"/>
<path fill-rule="evenodd" clip-rule="evenodd" d="M26.6054 0.400391L25.8706 2.38976C34.1849 3.7438 34.4562 3.7438 34.4562 12.6926V53.2686C34.4562 54.9854 34.4577 61.1732 44.0399 61.2213H44.0421H44.1492H44.3978H51.1789H52.0788L52.9016 58.9621H52.0224C45.7453 58.9534 44.3978 57.5841 44.3978 50.5572V31.58H62.9079L64.4648 27.3317H44.3978V9.34591C44.3978 5.00945 45.5725 4.64846 50.0916 4.64846H57.1407C63.015 4.64846 66.8999 6.54508 66.8999 13.7756H69.4296L74.3078 0.400391H26.6054Z" fill="white"/>
<path fill-rule="evenodd" clip-rule="evenodd" d="M1.57733 1.40651L0.858398 3.47209C9.62581 4.64651 9.89688 4.73795 9.89688 12.3279V41.4793V47.8529V61.2206H10.1433C19.8378 61.2206 19.8378 54.9921 19.8378 53.2679V47.8529V41.4793V2.38759L20.7146 0L1.57733 1.40651Z" fill="white"/>
<path fill-rule="evenodd" clip-rule="evenodd" d="M170.82 10.8323C170.108 10.8323 169.436 10.6899 168.805 10.4201C168.185 10.1475 167.635 9.77914 167.169 9.30733C166.697 8.84139 166.329 8.29316 166.055 7.67002C165.786 7.04384 165.648 6.36845 165.648 5.65235C165.648 4.93625 165.786 4.26521 166.055 3.63751C166.329 3.01155 166.697 2.46919 167.169 1.99738C167.635 1.52709 168.185 1.16 168.805 0.887406C169.436 0.614812 170.108 0.478516 170.82 0.478516C171.538 0.478516 172.211 0.614812 172.834 0.887406C173.466 1.16 174.011 1.52709 174.479 1.99738C174.949 2.46919 175.316 3.01155 175.585 3.63751C175.863 4.26521 176 4.93625 176 5.65235C176 6.36845 175.863 7.04384 175.585 7.67002C175.316 8.29316 174.949 8.84139 174.479 9.30733C174.011 9.77914 173.466 10.1475 172.834 10.4201C172.211 10.6899 171.538 10.8323 170.82 10.8323ZM170.82 9.82551C171.368 9.82551 171.876 9.72209 172.353 9.52004C172.823 9.3119 173.236 9.01971 173.59 8.64805C173.944 8.27966 174.223 7.83484 174.426 7.32405C174.633 6.81174 174.737 6.25458 174.737 5.65235C174.737 5.05164 174.633 4.49579 174.426 3.98217C174.223 3.47117 173.944 3.02635 173.59 2.65818C173.236 2.28652 172.823 1.99738 172.353 1.78771C171.876 1.58544 171.368 1.47919 170.82 1.47919C170.277 1.47919 169.769 1.58544 169.296 1.78771C168.821 1.99738 168.411 2.28652 168.052 2.65818C167.702 3.02635 167.426 3.47117 167.219 3.98217C167.015 4.49579 166.906 5.05164 166.906 5.65235C166.906 6.25458 167.015 6.81174 167.219 7.32405C167.426 7.83484 167.702 8.27966 168.052 8.64805C168.411 9.01971 168.821 9.3119 169.296 9.52004C169.769 9.72209 170.277 9.82551 170.82 9.82551Z" fill="white"/>
<path fill-rule="evenodd" clip-rule="evenodd" d="M173.21 8.58617C172.293 7.06144 171.694 6.02463 171.421 5.87048V5.86155C171.984 5.62619 172.529 5.09145 172.529 4.2961C172.529 3.381 171.948 2.60938 170.394 2.60938H168.777V8.58617H169.876V6.22406H170.384C170.611 6.29722 171.03 7.04337 171.957 8.58617H173.21ZM171.421 4.42194C171.421 4.9643 170.993 5.38952 170.43 5.38952H169.876V3.53515H170.421C171.104 3.53515 171.421 3.93359 171.421 4.42194Z" fill="white"/>
<path fill-rule="evenodd" clip-rule="evenodd" d="M107.162 70.0624C107.109 69.9055 107.064 69.767 107.045 69.664H107.04C107.02 69.772 106.975 69.91 106.921 70.0531L106.726 70.5741H107.34L107.162 70.0624ZM107.876 71.9458L107.567 71.1746H106.513L106.219 71.9458H105.48L106.754 68.6895H107.345L108.688 71.9458H107.876Z" fill="white"/>
<path fill-rule="evenodd" clip-rule="evenodd" d="M110.93 71.9935C110.449 71.9935 110.104 71.8368 109.857 71.6748L110.143 71.1374C110.359 71.2857 110.606 71.398 110.89 71.398C111.112 71.398 111.358 71.3199 111.358 71.098C111.358 70.7098 110.566 70.6458 110.177 70.1931C110.054 70.0501 109.976 69.8683 109.976 69.6173C109.976 69.1204 110.375 68.668 111.117 68.668C111.461 68.668 111.761 68.7561 111.963 68.87L111.948 69.499C111.647 69.3475 111.427 69.2591 111.162 69.2591C110.935 69.2591 110.773 69.3619 110.773 69.5197C110.773 70.0364 112.154 69.9763 112.154 71.0055C112.154 71.6199 111.609 71.9935 110.93 71.9935Z" fill="white"/>
<path fill-rule="evenodd" clip-rule="evenodd" d="M114.501 71.9935C114.019 71.9935 113.674 71.8368 113.428 71.6748L113.715 71.1374C113.93 71.2857 114.177 71.398 114.462 71.398C114.682 71.398 114.929 71.3199 114.929 71.098C114.929 70.7098 114.137 70.6458 113.749 70.1931C113.625 70.0501 113.547 69.8683 113.547 69.6173C113.547 69.1204 113.946 68.668 114.688 68.668C115.032 68.668 115.333 68.7561 115.534 68.87L115.521 69.499C115.218 69.3475 114.998 69.2591 114.732 69.2591C114.506 69.2591 114.344 69.3619 114.344 69.5197C114.344 70.0364 115.725 69.9763 115.725 71.0055C115.725 71.6199 115.18 71.9935 114.501 71.9935Z" fill="white"/>
<path fill-rule="evenodd" clip-rule="evenodd" d="M118.708 69.2678C118.196 69.2678 117.803 69.6528 117.803 70.3364C117.803 71.0194 118.196 71.4044 118.708 71.4044C119.21 71.4044 119.604 71.0194 119.604 70.3364C119.604 69.6528 119.21 69.2678 118.708 69.2678ZM119.958 71.4967C119.652 71.8067 119.23 71.9938 118.713 71.9938C118.221 71.9938 117.828 71.8566 117.538 71.6003C117.203 71.3005 117.021 70.8624 117.021 70.3656C117.021 69.8883 117.188 69.4598 117.493 69.1505C117.788 68.8504 118.206 68.668 118.713 68.668C119.254 68.668 119.697 68.8504 119.992 69.1659C120.267 69.4598 120.401 69.8633 120.401 70.3157C120.401 70.7734 120.254 71.2019 119.958 71.4967Z" fill="white"/>
<path fill-rule="evenodd" clip-rule="evenodd" d="M123.411 71.9935C122.329 71.9935 121.729 71.2609 121.729 70.3551C121.729 69.4261 122.437 68.668 123.583 68.668C123.898 68.668 124.209 68.7228 124.435 68.8358L124.42 69.4853C124.124 69.3124 123.839 69.2685 123.618 69.2685C122.846 69.2685 122.551 69.7851 122.551 70.3011C122.551 70.8822 122.934 71.3493 123.544 71.3493C123.849 71.3493 124.1 71.2705 124.361 71.1272L124.562 71.6441C124.164 71.896 123.795 71.9935 123.411 71.9935Z" fill="white"/>
<path fill-rule="evenodd" clip-rule="evenodd" d="M125.963 71.944H126.715V68.7031H125.963V71.944Z" fill="white"/>
<path fill-rule="evenodd" clip-rule="evenodd" d="M129.712 70.0624C129.657 69.9055 129.613 69.767 129.594 69.664H129.588C129.569 69.772 129.524 69.91 129.47 70.0531L129.275 70.5741H129.889L129.712 70.0624ZM130.424 71.9458L130.115 71.1746H129.062L128.767 71.9458H128.029L129.303 68.6895H129.894L131.237 71.9458H130.424Z" fill="white"/>
<path fill-rule="evenodd" clip-rule="evenodd" d="M134.503 69.308H133.646V71.9446H132.884V69.308H131.935V68.7031H134.659L134.503 69.308Z" fill="white"/>
<path fill-rule="evenodd" clip-rule="evenodd" d="M135.963 71.944H136.716V68.7031H135.963V71.944Z" fill="white"/>
<path fill-rule="evenodd" clip-rule="evenodd" d="M139.855 69.2678C139.344 69.2678 138.95 69.6528 138.95 70.3364C138.95 71.0194 139.344 71.4044 139.855 71.4044C140.357 71.4044 140.751 71.0194 140.751 70.3364C140.751 69.6528 140.357 69.2678 139.855 69.2678ZM141.104 71.4967C140.801 71.8067 140.377 71.9938 139.86 71.9938C139.368 71.9938 138.976 71.8566 138.686 71.6003C138.35 71.3005 138.168 70.8624 138.168 70.3656C138.168 69.8883 138.336 69.4598 138.64 69.1505C138.936 68.8504 139.354 68.668 139.86 68.668C140.403 68.668 140.844 68.8504 141.14 69.1659C141.414 69.4598 141.548 69.8633 141.548 70.3157C141.548 70.7734 141.401 71.2019 141.104 71.4967Z" fill="white"/>
<path fill-rule="evenodd" clip-rule="evenodd" d="M145.394 71.9451L144.045 70.237C143.942 70.1062 143.847 69.9766 143.741 69.8344H143.73C143.746 69.9424 143.746 70.1591 143.746 70.2971V71.9451H142.997V68.7031H143.75L145.055 70.3417C145.157 70.4726 145.251 70.5971 145.345 70.7341H145.353C145.345 70.568 145.345 70.3324 145.345 70.2037V68.7031H146.092V71.9451H145.394Z" fill="white"/>
<path fill-rule="evenodd" clip-rule="evenodd" d="M73.6671 69.3021H72.6436V69.9962H73.6521L73.6578 70.6004H72.6436V71.9388H71.8911V68.6973H73.8487L73.6671 69.3021Z" fill="white"/>
<path fill-rule="evenodd" clip-rule="evenodd" d="M76.8155 69.2639C76.3043 69.2639 75.9102 69.6478 75.9102 70.3314C75.9102 71.0155 76.3043 71.3994 76.8155 71.3994C77.3172 71.3994 77.7111 71.0155 77.7111 70.3314C77.7111 69.6478 77.3172 69.2639 76.8155 69.2639ZM78.0653 71.4928C77.7603 71.803 77.3372 71.9898 76.8205 71.9898C76.3287 71.9898 75.9359 71.8518 75.6453 71.5955C75.3104 71.2955 75.1279 70.8577 75.1279 70.3606C75.1279 69.8836 75.2954 69.4559 75.6008 69.1465C75.8956 68.8465 76.3137 68.6641 76.8205 68.6641C77.3618 68.6641 77.8049 68.8465 78.0997 69.1609C78.3751 69.4559 78.5084 69.8594 78.5084 70.3118C78.5084 70.7686 78.361 71.198 78.0653 71.4928Z" fill="white"/>
<path fill-rule="evenodd" clip-rule="evenodd" d="M81.5209 69.2639C81.0096 69.2639 80.616 69.6478 80.616 70.3314C80.616 71.0155 81.0096 71.3994 81.5209 71.3994C82.0225 71.3994 82.4164 71.0155 82.4164 70.3314C82.4164 69.6478 82.0225 69.2639 81.5209 69.2639ZM82.7706 71.4928C82.4656 71.803 82.0428 71.9898 81.5259 71.9898C81.0343 71.9898 80.6413 71.8518 80.3508 71.5955C80.0155 71.2955 79.8335 70.8577 79.8335 70.3606C79.8335 69.8836 80.0007 69.4559 80.3062 69.1465C80.601 68.8465 81.0192 68.6641 81.5259 68.6641C82.0671 68.6641 82.5102 68.8465 82.8057 69.1609C83.0804 69.4559 83.2137 69.8594 83.2137 70.3118C83.2137 70.7686 83.0663 71.198 82.7706 71.4928Z" fill="white"/>
<path fill-rule="evenodd" clip-rule="evenodd" d="M86.8396 69.3021H85.9835V71.9388H85.2212V69.3021H84.2715V68.6973H86.9966L86.8396 69.3021Z" fill="white"/>
<path fill-rule="evenodd" clip-rule="evenodd" d="M89.384 70.6056H89.0541V71.3298H89.3648C89.7234 71.3298 89.8806 71.2055 89.8806 70.9451C89.8806 70.7291 89.7132 70.6056 89.384 70.6056ZM89.2607 69.3119H89.0541V69.9956H89.3596C89.5272 69.9956 89.6744 69.8388 89.6744 69.6614C89.6744 69.4693 89.5414 69.3119 89.2607 69.3119ZM89.4726 71.939H88.3008V68.6973H89.4131C90.0776 68.6973 90.4066 69.1105 90.4066 69.5192C90.4066 69.7652 90.2838 70.0265 90.0382 70.1628V70.1678C90.4317 70.2766 90.6329 70.5963 90.6329 70.9503C90.6329 71.4273 90.2499 71.939 89.4726 71.939Z" fill="white"/>
<path fill-rule="evenodd" clip-rule="evenodd" d="M93.4077 70.0557C93.3532 69.8987 93.3086 69.76 93.2894 69.6581H93.2838C93.2646 69.7661 93.22 69.9031 93.1655 70.0461L92.9702 70.5682H93.5849L93.4077 70.0557ZM94.1203 71.9399L93.8113 71.1679H92.7577L92.4629 71.9399H91.7246L92.999 68.6836H93.5892L94.9331 71.9399H94.1203Z" fill="white"/>
<path fill-rule="evenodd" clip-rule="evenodd" d="M96.2441 71.939V68.6973H96.9933V71.3298H98.1088V71.939H96.2441Z" fill="white"/>
<path fill-rule="evenodd" clip-rule="evenodd" d="M99.4409 71.939V68.6973H100.189V71.3298H101.306V71.939H99.4409Z" fill="white"/>
<path fill-rule="evenodd" clip-rule="evenodd" d="M152.207 70.6176H151.878V71.3415H152.188C152.547 71.3415 152.704 71.2174 152.704 70.9577C152.704 70.7408 152.536 70.6176 152.207 70.6176ZM152.084 69.3245H151.878V70.0082H152.183C152.35 70.0082 152.497 69.8507 152.497 69.6739C152.497 69.4813 152.364 69.3245 152.084 69.3245ZM152.296 71.9509H151.124V68.709H152.236C152.901 68.709 153.23 69.1222 153.23 69.5309C153.23 69.7769 153.108 70.0382 152.862 70.1745V70.1795C153.255 70.2884 153.456 70.6082 153.456 70.962C153.456 71.4393 153.073 71.9509 152.296 71.9509Z" fill="white"/>
<path fill-rule="evenodd" clip-rule="evenodd" d="M156.423 69.2737C155.911 69.2737 155.518 69.6577 155.518 70.3423C155.518 71.0261 155.911 71.4093 156.423 71.4093C156.925 71.4093 157.318 71.0261 157.318 70.3423C157.318 69.6577 156.925 69.2737 156.423 69.2737ZM157.673 71.5025C157.367 71.8128 156.945 71.9998 156.428 71.9998C155.936 71.9998 155.543 71.8616 155.253 71.6053C154.918 71.3055 154.735 70.8685 154.735 70.3706C154.735 69.8942 154.903 69.4657 155.208 69.1563C155.503 68.8563 155.921 68.6738 156.428 68.6738C156.969 68.6738 157.412 68.8563 157.707 69.1709C157.982 69.4657 158.115 69.8691 158.115 70.3216C158.115 70.7786 157.968 71.2077 157.673 71.5025Z" fill="white"/>
<path fill-rule="evenodd" clip-rule="evenodd" d="M160.815 70.0681C160.762 69.9104 160.717 69.7726 160.698 69.6696H160.693C160.673 69.7776 160.628 69.9157 160.574 70.0578L160.378 70.5797H160.993L160.815 70.0681ZM161.529 71.9516L161.22 71.1793H160.166L159.872 71.9516H159.133L160.407 68.6953H160.997L162.341 71.9516H161.529Z" fill="white"/>
<path fill-rule="evenodd" clip-rule="evenodd" d="M164.687 69.3243H164.406V70.2H164.681C164.942 70.2 165.134 70.0029 165.134 69.738C165.134 69.5009 164.957 69.3243 164.687 69.3243ZM165.399 71.9507C164.913 71.1051 164.74 70.7802 164.632 70.7356H164.406V71.9507H163.653V68.709H164.666C165.557 68.709 165.872 69.1471 165.872 69.6526C165.872 70.0663 165.581 70.3526 165.296 70.4854V70.4904C165.473 70.5934 165.773 71.1247 166.251 71.9507H165.399Z" fill="white"/>
<path fill-rule="evenodd" clip-rule="evenodd" d="M168.667 69.3243H168.323V71.3415H168.682C169.434 71.3415 169.744 70.859 169.744 70.3276C169.744 69.6979 169.365 69.3243 168.667 69.3243ZM168.662 71.9507H167.57V68.709H168.74C169.877 68.709 170.556 69.3184 170.556 70.303C170.556 71.3261 169.76 71.9507 168.662 71.9507Z" fill="white"/>
<path fill-rule="evenodd" clip-rule="evenodd" d="M5.50412 69.3119H4.64802V71.9486H3.88554V69.3119H2.93604V68.707H5.66088L5.50412 69.3119Z" fill="white"/>
<path fill-rule="evenodd" clip-rule="evenodd" d="M9.14713 71.9488V70.6198H7.71579V71.9488H6.96289V68.707H7.71579V69.9814H9.14713V68.707H9.8996V71.9488H9.14713Z" fill="white"/>
<path fill-rule="evenodd" clip-rule="evenodd" d="M11.4746 71.9488V68.707H13.4228L13.2402 69.3121H12.2275V69.9918H13.2456V70.601H12.2275V71.3439H13.413V71.9488H11.4746Z" fill="white"/>
<path fill-rule="evenodd" clip-rule="evenodd" d="M18.5898 71.937H19.343V68.6953H18.5898V71.937Z" fill="white"/>
<path fill-rule="evenodd" clip-rule="evenodd" d="M23.3101 71.9371L21.9622 70.2292C21.8599 70.0973 21.7645 69.9697 21.6569 69.8266H21.6471C21.6624 69.9344 21.6624 70.1513 21.6624 70.2884V71.9371H20.9141V68.6953H21.6663L22.9705 70.3337C23.0746 70.4648 23.1675 70.5885 23.2611 70.7261H23.2705C23.2611 70.5599 23.2611 70.3235 23.2611 70.1959V68.6953H24.0086V71.9371H23.3101Z" fill="white"/>
<path fill-rule="evenodd" clip-rule="evenodd" d="M27.9313 69.301H27.075V71.9368H26.3127V69.301H25.3628V68.6953H28.0881L27.9313 69.301Z" fill="white"/>
<path fill-rule="evenodd" clip-rule="evenodd" d="M29.3896 71.9371V68.6953H31.3381L31.1554 69.3004H30.1425V69.979H31.1617V70.5885H30.1425V71.3313H31.3281V71.9371H29.3896Z" fill="white"/>
<path fill-rule="evenodd" clip-rule="evenodd" d="M33.8224 69.3104H33.5418V70.1861H33.8174C34.0778 70.1861 34.2699 69.9893 34.2699 69.7243C34.2699 69.4878 34.0929 69.3104 33.8224 69.3104ZM34.5359 71.9368C34.0487 71.0921 33.876 70.7663 33.7685 70.7226H33.5418V71.9368H32.7896V68.6953H33.8029C34.6927 68.6953 35.0075 69.1332 35.0075 69.6405C35.0075 70.0535 34.7171 70.3389 34.4321 70.4715V70.4765C34.6095 70.5795 34.9096 71.111 35.3864 71.9368H34.5359Z" fill="white"/>
<path fill-rule="evenodd" clip-rule="evenodd" d="M39.1023 71.9371L37.7544 70.2292C37.6516 70.0973 37.5569 69.9697 37.4489 69.8266H37.4396C37.4542 69.9344 37.4542 70.1513 37.4542 70.2884V71.9371H36.7061V68.6953H37.459L38.7629 70.3337C38.8663 70.4648 38.9597 70.5885 39.0531 70.7261H39.0629C39.0531 70.5599 39.0531 70.3235 39.0531 70.1959V68.6953H39.8004V71.9371H39.1023Z" fill="white"/>
<path fill-rule="evenodd" clip-rule="evenodd" d="M42.7958 70.0527C42.7426 69.8957 42.6984 69.757 42.6793 69.6542H42.6738C42.654 69.762 42.6098 69.9 42.5556 70.0431L42.359 70.5643H42.9739L42.7958 70.0527ZM43.5097 71.936L43.2001 71.1648H42.1471L41.853 71.936H41.1143L42.3893 68.6797H42.9782L44.3229 71.936H43.5097Z" fill="white"/>
<path fill-rule="evenodd" clip-rule="evenodd" d="M47.586 69.301H46.7299V71.9368H45.9676V69.301H45.0186V68.6953H47.743L47.586 69.301Z" fill="white"/>
<path fill-rule="evenodd" clip-rule="evenodd" d="M49.0474 71.937H49.8013V68.6953H49.0474V71.937Z" fill="white"/>
<path fill-rule="evenodd" clip-rule="evenodd" d="M52.9389 69.26C52.4272 69.26 52.0336 69.6439 52.0336 70.3284C52.0336 71.0116 52.4272 71.3955 52.9389 71.3955C53.4407 71.3955 53.8353 71.0116 53.8353 70.3284C53.8353 69.6439 53.4407 69.26 52.9389 69.26ZM54.1886 71.4887C53.8832 71.7989 53.4608 71.986 52.9441 71.986C52.4518 71.986 52.0601 71.8479 51.768 71.5925C51.4338 71.2925 51.252 70.8547 51.252 70.3567C51.252 69.8803 51.4187 69.4518 51.7242 69.1426C52.0194 68.8426 52.4373 68.6602 52.9441 68.6602C53.4852 68.6602 53.9282 68.8426 54.2239 69.157C54.4982 69.4518 54.6326 69.8555 54.6326 70.3079C54.6326 70.7647 54.4843 71.1941 54.1886 71.4887Z" fill="white"/>
<path fill-rule="evenodd" clip-rule="evenodd" d="M58.4761 71.9371L57.129 70.2292C57.0269 70.0973 56.9311 69.9697 56.8231 69.8266H56.8141C56.8285 69.9344 56.8285 70.1513 56.8285 70.2884V71.9371H56.0811V68.6953H56.8324L58.1366 70.3337C58.2413 70.4648 58.3337 70.5885 58.4271 70.7261H58.4379C58.4271 70.5599 58.4271 70.3235 58.4271 70.1959V68.6953H59.1745V71.9371H58.4761Z" fill="white"/>
<path fill-rule="evenodd" clip-rule="evenodd" d="M62.1708 70.0527C62.1164 69.8957 62.0718 69.757 62.0526 69.6542H62.0474C62.0282 69.762 61.9831 69.9 61.9287 70.0431L61.7323 70.5643H62.3478L62.1708 70.0527ZM62.8837 71.936L62.5745 71.1648H61.5207L61.2265 71.936H60.4878L61.7619 68.6797H62.3533L63.696 71.936H62.8837Z" fill="white"/>
<path fill-rule="evenodd" clip-rule="evenodd" d="M65.0093 71.9371V68.6953H65.7578V71.3268H66.8739V71.9371H65.0093Z" fill="white"/>
</svg>
